<mxfile host="app.diagrams.net" modified="2022-07-21T03:09:58.308Z" agent="5.0 (Windows NT 10.0; Win64; x64) AppleWebKit/537.36 (KHTML, like Gecko) Chrome/103.0.5060.114 Safari/537.36 Edg/103.0.1264.62" etag="M0BZoQL4JMzHEFBG2Nen" version="20.1.3" type="github">
  <diagram id="Jy3A1tPjstFqq4n1U-oB" name="Page-1">
    <mxGraphModel dx="630" dy="458" grid="1" gridSize="10" guides="1" tooltips="1" connect="1" arrows="1" fold="1" page="1" pageScale="1" pageWidth="827" pageHeight="1169" math="0" shadow="0">
      <root>
        <mxCell id="0" />
        <mxCell id="1" parent="0" />
        <mxCell id="R41gwWJuUGkRrXrciR1b-2" value="D-03" style="rounded=0;whiteSpace=wrap;html=1;" parent="1" vertex="1">
          <mxGeometry x="160" y="130" width="80" height="60" as="geometry" />
        </mxCell>
        <mxCell id="R41gwWJuUGkRrXrciR1b-3" value="Position" style="rounded=0;whiteSpace=wrap;html=1;fillColor=#ffe6cc;strokeColor=#000000;" parent="1" vertex="1">
          <mxGeometry x="160" y="190" width="80" height="60" as="geometry" />
        </mxCell>
        <mxCell id="R41gwWJuUGkRrXrciR1b-4" value="D-01" style="rounded=0;whiteSpace=wrap;html=1;" parent="1" vertex="1">
          <mxGeometry x="160" y="250" width="80" height="60" as="geometry" />
        </mxCell>
        <mxCell id="R41gwWJuUGkRrXrciR1b-5" value="D-00" style="rounded=0;whiteSpace=wrap;html=1;" parent="1" vertex="1">
          <mxGeometry x="160" y="310" width="80" height="60" as="geometry" />
        </mxCell>
        <mxCell id="R41gwWJuUGkRrXrciR1b-6" value="D-07" style="rounded=0;whiteSpace=wrap;html=1;" parent="1" vertex="1">
          <mxGeometry x="240" y="130" width="80" height="60" as="geometry" />
        </mxCell>
        <mxCell id="R41gwWJuUGkRrXrciR1b-7" value="D-06" style="rounded=0;whiteSpace=wrap;html=1;" parent="1" vertex="1">
          <mxGeometry x="240" y="190" width="80" height="60" as="geometry" />
        </mxCell>
        <mxCell id="R41gwWJuUGkRrXrciR1b-8" value="Position" style="rounded=0;whiteSpace=wrap;html=1;fillColor=#ffe6cc;strokeColor=#000000;" parent="1" vertex="1">
          <mxGeometry x="240" y="250" width="80" height="60" as="geometry" />
        </mxCell>
        <mxCell id="R41gwWJuUGkRrXrciR1b-9" value="Position" style="rounded=0;whiteSpace=wrap;html=1;fillColor=#ffe6cc;strokeColor=#000000;" parent="1" vertex="1">
          <mxGeometry x="240" y="310" width="80" height="60" as="geometry" />
        </mxCell>
        <mxCell id="R41gwWJuUGkRrXrciR1b-10" value="D-0B" style="rounded=0;whiteSpace=wrap;html=1;" parent="1" vertex="1">
          <mxGeometry x="320" y="130" width="80" height="60" as="geometry" />
        </mxCell>
        <mxCell id="R41gwWJuUGkRrXrciR1b-11" value="D-0A" style="rounded=0;whiteSpace=wrap;html=1;" parent="1" vertex="1">
          <mxGeometry x="320" y="190" width="80" height="60" as="geometry" />
        </mxCell>
        <mxCell id="R41gwWJuUGkRrXrciR1b-12" value="D-09" style="rounded=0;whiteSpace=wrap;html=1;" parent="1" vertex="1">
          <mxGeometry x="320" y="250" width="80" height="60" as="geometry" />
        </mxCell>
        <mxCell id="R41gwWJuUGkRrXrciR1b-13" value="D-08" style="rounded=0;whiteSpace=wrap;html=1;" parent="1" vertex="1">
          <mxGeometry x="320" y="310" width="80" height="60" as="geometry" />
        </mxCell>
        <mxCell id="R41gwWJuUGkRrXrciR1b-14" value="D-0F" style="rounded=0;whiteSpace=wrap;html=1;" parent="1" vertex="1">
          <mxGeometry x="400" y="130" width="80" height="60" as="geometry" />
        </mxCell>
        <mxCell id="R41gwWJuUGkRrXrciR1b-15" value="D-0e" style="rounded=0;whiteSpace=wrap;html=1;" parent="1" vertex="1">
          <mxGeometry x="400" y="190" width="80" height="60" as="geometry" />
        </mxCell>
        <mxCell id="R41gwWJuUGkRrXrciR1b-16" value="Null" style="rounded=0;whiteSpace=wrap;html=1;fillColor=#eeeeee;strokeColor=#36393d;" parent="1" vertex="1">
          <mxGeometry x="400" y="250" width="80" height="60" as="geometry" />
        </mxCell>
        <mxCell id="R41gwWJuUGkRrXrciR1b-17" value="Null" style="rounded=0;whiteSpace=wrap;html=1;fillColor=#eeeeee;strokeColor=#36393d;" parent="1" vertex="1">
          <mxGeometry x="400" y="310" width="80" height="60" as="geometry" />
        </mxCell>
      </root>
    </mxGraphModel>
  </diagram>
</mxfile>
